<?xml version="1.0" encoding="UTF-8" standalone="no"?>
<!-- Created with Inkscape (http://www.inkscape.org/) -->

<svg
   width="78.749161mm"
   height="70.24263mm"
   viewBox="0 0 78.749161 70.24263"
   version="1.1"
   id="svg1"
   inkscape:version="1.3.2 (091e20ef0f, 2023-11-25, custom)"
   sodipodi:docname="coffee.svg"
   xmlns:inkscape="http://www.inkscape.org/namespaces/inkscape"
   xmlns:sodipodi="http://sodipodi.sourceforge.net/DTD/sodipodi-0.dtd"
   xmlns="http://www.w3.org/2000/svg"
   xmlns:svg="http://www.w3.org/2000/svg">
  <sodipodi:namedview
     id="namedview1"
     pagecolor="#505050"
     bordercolor="#ffffff"
     borderopacity="1"
     inkscape:showpageshadow="0"
     inkscape:pageopacity="0"
     inkscape:pagecheckerboard="1"
     inkscape:deskcolor="#d1d1d1"
     inkscape:document-units="mm"
     inkscape:zoom="0.7349537"
     inkscape:cx="63.269291"
     inkscape:cy="218.3811"
     inkscape:window-width="1920"
     inkscape:window-height="1031"
     inkscape:window-x="1920"
     inkscape:window-y="49"
     inkscape:window-maximized="1"
     inkscape:current-layer="layer1" />
  <defs
     id="defs1" />
  <g
     inkscape:label="Layer 1"
     inkscape:groupmode="layer"
     id="layer1"
     transform="translate(-88.370837,-90.752081)">
    <path
       id="path9"
       d="m 107.77519,156.23042 -0.16802,-0.26705 c -0.5295,-0.66794 -1.00863,-1.21726 -2.41562,-2.83033 0.98539,-0.0208 4.94811,1.53823 8.23913,2.83302 0.27931,0.0549 1.98445,-0.25827 2.97471,-0.44013 1.18241,-0.0914 1.6373,-0.0213 2.0922,0.0488 1.13267,-0.0335 2.06212,-0.14464 2.99159,-0.25574 1.20143,0.0126 1.74038,0.13908 2.9051,0.41243 3.81841,-0.89706 7.97645,-2.42088 10.07175,-3.18875 1.48459,-0.80961 2.81848,-1.91178 3.86975,-2.78042 1.21239,-0.86559 1.64296,-1.05488 3.63642,-1.93129 1.14576,-1.06627 2.07987,-2.91432 2.89135,-4.51974 0.29039,-0.31152 1.36437,-0.72866 2.99281,-1.36118 0.7996,0.12799 1.20331,1.08578 1.66893,2.19048 -0.85261,1.60529 -3.60623,4.80842 -7.68162,9.54908 -3.61603,2.42914 -10.47642,5.0348 -15.77473,7.04716 -3.54117,0.32371 -8.89139,-0.71523 -11.30026,-1.18299 -6.56902,-2.64868 -6.99349,-3.32333 -6.99349,-3.32333"
       style="fill:#ceaf9a;fill-opacity:0.9;fill-rule:nonzero;stroke:none;stroke-width:0.352779" />
    <path
       id="path10"
       d="m 88.494086,115.09162 -0.123249,-0.85169 c 0.272189,-0.70981 2.113108,-4.33743 4.280341,-8.60807 1.125281,-1.5465 3.642359,-3.71367 4.303605,-4.28298 1.120404,-1.09208 1.828547,-1.857516 3.710147,-3.891355 2.18066,-1.620306 2.90907,-1.52581 3.25899,-1.480418 0.53112,-0.296582 0.83118,-0.704906 1.52267,-1.645919 5.47525,-2.088775 8.4259,-2.53722 13.9559,-3.377682 2.92444,-0.141029 5.91132,0.288708 11.31067,1.065543 4.36087,1.682535 9.02647,4.789031 11.97673,6.753397 1.61403,1.492254 4.13246,4.583944 7.67911,8.937924 2.05948,3.36858 2.77332,5.98323 2.95337,6.64274 0.58005,1.76839 1.10894,3.27024 2.17709,6.30343 0.20286,2.33955 -0.38273,4.87172 -0.59736,5.79977 -0.15009,1.56908 -0.11892,2.55879 -0.0353,5.21232 -0.47076,2.13842 -1.71193,4.74317 -2.6597,6.73218 -0.35645,0.46414 -1.54343,1.2549 -3.32709,2.44318 -0.57167,-0.0537 0.034,-1.3525 0.28836,-1.89801 0.29841,-1.11085 0.40874,-1.92304 0.51908,-2.73524 0.28711,-1.84932 0.52769,-3.29742 0.76826,-4.74552 0.18564,-1.46711 0.17196,-1.81216 0.15828,-2.1572 0.11123,-0.54485 0.26086,-0.86573 0.41048,-1.18661 -0.19315,-1.28428 -0.57887,-2.53308 -1.06479,-4.10632 -0.1311,-1.24225 0.059,-2.47174 0.22242,-3.52835 -0.0831,-1.21747 -0.36873,-1.95294 -0.63259,-2.63226 -0.14928,-0.69863 -0.0679,-0.8732 0.13837,-1.31548 -2.02407,-5.16909 -3.16051,-7.10237 -5.70742,-11.4351 -4.1422,-3.61248 -10.27888,-6.852819 -14.48628,-9.074455 -0.87557,-0.303188 -5.21754,-1.04201 -7.63699,-1.453703 -5.86899,0.110953 -7.41904,0.597693 -8.10452,0.812941 -1.46622,0.406665 -2.5728,0.688446 -3.67936,0.970225 -1.49808,0.444714 -2.22249,0.706469 -2.95531,0.971267 -0.93741,0.07073 -1.38029,-0.105346 -2.3035,-0.472396 -0.0619,0.05494 0.22536,0.986215 0.41713,1.607847 -0.11725,0.145805 -1.36872,0.841802 -4.63348,2.657494 -2.618055,2.80542 -5.287864,7.34903 -6.392073,9.22822 -1.195648,1.83781 -1.55279,2.20482 -1.942768,2.60559 -0.409922,0.85217 -0.636309,1.73274 -1.097344,3.526 -0.602453,0.49374 -1.703219,-0.0196 -2.270742,-0.2842 -0.302986,-0.42909 -0.401097,-1.10711 -0.401097,-1.10711"
       style="fill:#ceaf9a;fill-opacity:0.9;fill-rule:nonzero;stroke:none;stroke-width:0.352779" />
    <path
       id="path11"
       d="m 156.24858,108.06964 0.0217,-0.30995 c 0.22255,-0.32814 0.47286,-0.41924 1.12359,-0.65609 0.65171,0.7977 0.2551,1.34558 -0.18668,1.95585 -1.0088,-0.27341 -0.95862,-0.98981 -0.95862,-0.98981"
       style="fill:#ceaf9a;fill-opacity:0.9;fill-rule:nonzero;stroke:none;stroke-width:0.352779" />
    <path
       id="path12"
       d="m 166.31811,109.90717 0.42676,-0.57125 c 0.53499,0.20234 0.36693,0.87143 0.27966,1.2189 -0.23188,0.12428 -0.53188,-0.0156 -0.81172,-0.1461 -0.0727,-0.26328 0.1053,-0.50155 0.1053,-0.50155"
       style="fill:#ceaf9a;fill-opacity:0.9;fill-rule:nonzero;stroke:none;stroke-width:0.352779" />
    <path
       id="path13"
       d="m 109.41002,157.03613 -1.13278,-0.64623 c -1.32097,-1.57882 -1.15542,-2.08864 -1.06186,-2.37676 2.06883,0.56128 5.10933,1.69966 6.11766,2.0772 0.82918,0.0419 1.9364,-0.22861 2.78406,-0.43573 1.37257,-0.10271 2.2025,-0.0211 3.03243,0.0605 0.96736,-0.0212 1.31973,-0.12876 1.67211,-0.2363 1.0864,-0.008 2.06185,0.0902 5.43838,0.42933 8.06349,-2.60605 10.88303,-4.94774 11.80984,-5.71748 1.77199,-1.22936 3.01097,-1.96218 5.08132,-3.18675 0.24927,-0.2514 1.00952,-1.88177 1.76916,-3.51083 0.18617,-0.18805 1.51969,-0.67341 3.19426,-1.2829 0.51723,0.14244 0.8782,1.31256 1.1164,2.08472 -0.0825,0.20892 -1.27305,1.8481 -5.84565,8.14378 -5.06842,3.74544 -12.59505,6.39079 -17.07021,7.96365 -3.39865,0.37628 -7.42202,-0.25569 -10.36415,-0.71782 -4.46696,-1.46516 -6.54097,-2.64833 -6.54097,-2.64833"
       style="fill:#c59470;fill-opacity:0.9;fill-rule:nonzero;stroke:none;stroke-width:0.352779" />
    <path
       id="path14"
       d="m 88.716331,114.51288 -0.113257,-0.78265 c 0.213089,-0.59788 1.278298,-2.48612 1.995304,-3.75713 0.996458,-1.80625 1.497349,-2.7429 2.525169,-4.66486 1.130508,-1.24391 4.128934,-3.75202 5.270557,-4.70696 1.077461,-1.088848 1.252732,-1.464718 1.428,-1.840581 0.316706,-0.378316 0.528526,-0.464826 0.740346,-0.551337 0.55122,-0.480196 1.01313,-0.980582 2.22751,-2.296131 0.59087,-0.07669 1.40304,0.97582 1.76878,1.449783 0.32051,0.568483 0.34653,0.789329 0.37254,1.010179 -0.9391,0.666772 -2.11289,1.260858 -3.28669,1.854947 -1.0808,0.74431 -1.22798,1.05993 -1.37515,1.37555 -0.488178,0.54124 -0.937667,0.88713 -2.029602,1.72741 -1.297667,1.81201 -3.454351,5.50797 -4.438458,7.19446 -1.098226,1.72123 -1.456403,2.13849 -1.814573,2.55573 -0.441498,0.90977 -0.622931,1.60445 -1.028675,3.15798 -0.180082,0.12823 -1.253277,-0.37221 -1.840144,-0.64587 -0.305952,-0.41912 -0.401657,-1.08052 -0.401657,-1.08052"
       style="fill:#c59470;fill-opacity:0.9;fill-rule:nonzero;stroke:none;stroke-width:0.352779" />
    <path
       id="path15"
       d="m 149.94752,138.19634 -0.15451,-0.5941 c 0.14945,-1.8587 0.57363,-4.61825 0.74147,-5.71019 0.20106,-1.50733 0.27896,-2.25767 0.35687,-3.008 0.14856,-0.79584 0.25225,-1.01819 0.35594,-1.24055 -0.23817,-1.01363 -0.63294,-2.03015 -1.16274,-3.39439 -0.11394,-0.96262 0.0947,-2.31175 0.74753,-6.53352 -3.12021,-8.00909 -7.14142,-12.4334 -10.79039,-16.44815 -8.04153,-4.924958 -12.44744,-5.843338 -15.98941,-6.581643 -2.34217,-0.234783 -5.11821,-0.129799 -6.4815,-0.07825 -1.27845,-0.03306 -1.4777,-0.12502 -1.67696,-0.216985 -0.4244,0.09459 -0.74384,0.302155 -1.06328,0.509715 -1.41879,0.415533 -2.83342,0.715842 -4.24805,1.016153 -1.76929,0.478992 -2.51714,0.764136 -4.05744,1.351428 -0.88768,-0.25946 -1.23947,-1.399805 -1.46948,-2.145435 0.0944,-0.08516 2.30769,-1.128173 4.50693,-2.164581 3.86272,-1.136065 4.37505,-0.897162 4.50571,-0.836235 0.83441,-0.143423 1.72359,-0.379651 2.61276,-0.615872 1.25079,-0.168937 1.89035,-0.139184 2.52991,-0.109441 1.08709,-0.06489 1.7762,-0.17397 4.74709,-0.644213 5.9134,1.291518 10.58347,3.430574 16.58728,6.18054 2.74803,2.231169 7.17475,7.949889 10.60277,12.378429 1.01046,1.8949 2.77401,7.2021 4.14088,11.31555 0.40096,3.57349 -0.3288,5.13845 -0.48912,5.48225 -0.14879,1.48997 -0.17032,2.96724 -0.21035,5.71432 -0.56996,2.67373 -1.46411,4.30891 -1.74029,4.81399 -0.3908,0.72392 -0.59224,1.10364 -0.9497,1.77744 -1.11662,0.6145 -1.58591,0.39567 -1.71505,0.33545 -0.16471,-0.27627 -0.23687,-0.55371 -0.23687,-0.55371"
       style="fill:#c59470;fill-opacity:0.9;fill-rule:nonzero;stroke:none;stroke-width:0.352779" />
    <path
       id="path16"
       d="m 156.5705,107.86278 0.11206,-0.24031 c 0.28829,-0.10493 0.52859,0.007 0.76889,0.11918 0.10493,0.2883 -0.007,0.5286 -0.11918,0.7689 -0.28829,0.10492 -0.52859,-0.007 -0.76889,-0.11919 -0.10493,-0.28828 0.007,-0.52858 0.007,-0.52858"
       style="fill:#c59470;fill-opacity:0.9;fill-rule:nonzero;stroke:none;stroke-width:0.352779" />
    <path
       id="path17"
       d="m 109.0375,156.56523 -0.36741,-0.25773 c -0.51035,-0.61658 -0.7667,-1.11248 -0.13497,-1.51439 0.45726,0.47376 0.6266,0.87551 0.91525,1.56036 0.0364,0.009 0.29494,-0.54569 0.57664,-1.14978 1.09395,0.0824 2.69351,0.82834 3.08359,1.01024 1.12157,-0.0271 2.10227,-0.24203 3.08299,-0.457 1.35762,-0.10876 2.03623,-0.0267 2.71483,0.0554 1.15536,-0.0282 1.88883,-0.14476 2.62232,-0.26131 0.77283,-0.0148 0.98389,0.0836 1.62606,0.38304 1.93833,-0.18603 4.02316,-0.74721 5.11105,-1.04004 1.72877,-0.46684 2.75385,-0.7446 5.14722,-1.39313 2.26153,-1.1905 4.0222,-2.72875 4.79042,-3.39992 1.12691,-0.78642 1.73603,-1.07643 3.78717,-2.05301 1.33631,-1.24314 2.35275,-3.12025 3.19294,-4.67186 0.30138,-0.30565 1.25566,-0.57391 1.86866,-0.74622 0.81731,0.006 1.20324,0.18621 2.4141,0.75084 -0.22444,0.91933 -2.19849,3.48074 -6.77197,9.415 -4.11451,2.96464 -11.81595,5.87486 -17.96641,8.19899 -5.65759,-0.13021 -12.04631,-2.74293 -13.68429,-3.4128 -1.64079,-0.75892 -2.00819,-1.01664 -2.00819,-1.01664"
       style="fill:#b78b67;fill-opacity:0.9;fill-rule:nonzero;stroke:none;stroke-width:0.352779" />
    <path
       id="path18"
       d="m 88.886392,114.58752 -0.205493,-0.78384 c 1.85188,-3.94005 2.737798,-4.60389 3.230061,-4.97275 0.137491,-0.30002 0.102764,-0.92975 0.06935,-1.53602 0.144261,-0.32953 0.588987,-0.66276 0.919371,-0.91033 0.414909,-0.51264 0.591635,-0.89163 0.768364,-1.27063 0.322637,-0.37866 0.540242,-0.46247 0.757845,-0.54628 0.374704,-0.3758 0.615076,-0.7513 0.965364,-1.29851 0.283105,-0.066 1.075957,0.21463 2.022889,0.54982 0.02182,0.0588 -0.436395,1.04146 -1.323794,2.94449 -3.013353,4.77639 -3.891824,5.67239 -4.425715,6.21694 -0.311339,0.54925 -0.269632,0.87301 -0.232192,1.16372 -0.135434,0.59924 -0.338415,1.04094 -0.655993,1.732 -0.168381,0.0575 -0.889631,-0.27883 -1.350616,-0.49379 -0.45019,-0.4544 -0.539438,-0.79482 -0.539438,-0.79482"
       style="fill:#b78b67;fill-opacity:0.9;fill-rule:nonzero;stroke:none;stroke-width:0.352779" />
    <path
       id="path19"
       d="m 150.18855,137.26552 -0.16607,-0.75945 c -0.0465,-0.81294 0.0626,-1.04706 0.2437,-1.43535 0.17424,-1.14284 0.79567,-6.01786 0.91529,-6.95631 -0.14831,-1.47103 -0.45727,-2.41049 -1.07767,-4.29691 -0.13409,-1.7993 0.2796,-2.68647 0.43251,-3.01437 -0.0969,-0.98998 -0.36817,-1.87208 -0.63947,-2.75416 -0.16127,-0.85189 -0.0871,-1.01098 0.18998,-1.60513 -2.06892,-5.2505 -3.38918,-7.30379 -6.72041,-12.48456 -3.89966,-3.21155 -10.97537,-6.601327 -16.32884,-9.166024 -1.95177,-0.468296 -6.92521,-0.381369 -8.30168,-0.357313 -1.70857,-0.01467 -2.42037,-0.05667 -3.13217,-0.09867 -0.63565,0.07988 -0.70076,0.219508 -0.86612,0.574136 -4.84099,1.148818 -5.70027,1.037349 -6.08839,0.987004 -0.67933,0.182814 -1.1215,0.456607 -2.01889,1.012274 -0.90819,-0.2614 -1.13899,-1.141788 -1.28984,-1.71719 0.77261,-0.876353 1.41962,-0.863732 1.56679,-0.860857 0.69415,-0.270244 1.39539,-0.603406 2.98841,-1.360277 3.83879,-1.006388 4.30446,-0.789241 4.49577,-0.70003 0.63943,-0.102767 1.22963,-0.317581 1.81984,-0.532397 1.32329,-0.201274 2.35046,-0.232452 3.37762,-0.263629 1.27274,-0.09713 1.80114,-0.184659 4.285,-0.596099 6.84354,1.558273 10.9382,3.467649 15.87731,5.770799 3.35937,2.641011 7.0146,7.094393 10.71104,11.597973 1.39987,2.51906 3.11503,7.75368 4.70481,12.60566 0.44149,3.48674 -0.32003,5.17606 -0.50165,5.57895 -0.12089,1.14044 -0.087,2.13142 0.0475,6.06704 -1.64039,4.88632 -3.38121,5.73542 -4.52439,4.76489"
       style="fill:#b78b67;fill-opacity:0.9;fill-rule:nonzero;stroke:none;stroke-width:0.352779" />
    <path
       id="path20"
       d="m 99.971554,99.200664 0.265176,-0.568671 c 0.22325,-0.09009 0.75401,0.157407 1.71004,0.603209 0.0512,0.392037 -0.79984,0.75073 -1.83692,1.187858 -0.540059,-0.36081 -0.138296,-1.222396 -0.138296,-1.222396"
       style="fill:#b78b67;fill-opacity:0.9;fill-rule:nonzero;stroke:none;stroke-width:0.352779" />
    <path
       id="path21"
       d="m 101.92772,98.296019 -0.36775,-0.635522 c 0.0371,-0.200761 0.63623,-0.816429 1.41499,-1.616725 0.67369,0.158749 1.33087,1.29741 1.86066,2.215341 -0.19761,0.511902 -1.20128,0.821537 -2.11573,1.10363 -0.23831,-0.109567 -0.79217,-1.066724 -0.79217,-1.066724"
       style="fill:#b78b67;fill-opacity:0.9;fill-rule:nonzero;stroke:none;stroke-width:0.352779" />
    <path
       id="path22"
       d="m 156.5705,107.86278 0.11206,-0.24031 c 0.28829,-0.10493 0.52859,0.007 0.76889,0.11918 0.10493,0.2883 -0.007,0.5286 -0.11918,0.7689 -0.28829,0.10492 -0.52859,-0.007 -0.76889,-0.11919 -0.10493,-0.28828 0.007,-0.52858 0.007,-0.52858"
       style="fill:#b78b67;fill-opacity:0.9;fill-rule:nonzero;stroke:none;stroke-width:0.352779" />
    <path
       id="path23"
       d="m 109.98522,157.00432 -0.48683,-0.52235 c 0.63881,-0.94535 1.27741,-0.64757 1.58836,-0.50257 0.39653,0.0253 0.57024,-0.0887 0.74395,-0.20273 0.57284,0.10755 1.09926,0.35302 1.69576,0.63118 0.67063,0.0375 1.18344,-0.17866 1.89121,-0.47699 5.38509,-0.22457 8.17308,-0.072 9.73409,0.0134 7.23695,-1.95331 9.22617,-2.99695 10.27355,-3.54646 1.42732,-0.9543 2.12442,-1.57115 2.82153,-2.18801 1.16626,-0.81254 1.89458,-1.1888 4.5202,-2.5452 1.08091,-0.9381 1.43038,-2.16371 1.89575,-3.7958 1.07032,-0.96271 2.51196,-1.04594 5.40935,-1.21321 -1.00351,2.5218 -5.93933,7.81156 -8.95689,11.0455 -4.74794,2.9099 -10.46302,5.028 -15.0643,6.73329 -4.45583,0.27057 -9.37569,-0.85658 -11.25811,-1.28783 -4.38216,-1.68569 -4.80762,-2.1422 -4.80762,-2.1422"
       style="fill:#ac724f;fill-opacity:0.9;fill-rule:nonzero;stroke:none;stroke-width:0.352779" />
    <path
       id="path24"
       d="m 88.813345,114.39779 -0.08262,-0.70143 c 2.118735,-3.84959 2.854763,-4.33535 3.495966,-4.75854 0.0725,-0.17499 -0.04809,-1.00837 -0.162739,-1.80066 0.07642,-0.20404 0.57633,-0.44045 0.905824,-0.59627 0.341156,-0.38761 0.428639,-0.70555 0.516121,-1.02348 0.412539,-0.45692 0.82928,-0.69744 1.246018,-0.93796 0.45366,-0.43847 0.591407,-0.73387 0.78449,-1.14794 0.230978,-0.0164 0.81539,0.34266 1.524589,0.77835 0.0066,0.11307 -0.607305,1.31978 -2.232199,4.51391 -1.505959,2.43299 -2.461291,3.40739 -3.031309,3.98878 -0.506118,0.70981 -0.554683,0.99595 -0.60325,1.2821 -0.09249,0.56856 -0.156966,0.97733 -0.262663,1.64743 -0.112052,0.0262 -1.033426,-0.40341 -1.595469,-0.6655 -0.479164,-0.3784 -0.502764,-0.57879 -0.502764,-0.57879"
       style="fill:#ac724f;fill-opacity:0.9;fill-rule:nonzero;stroke:none;stroke-width:0.352779" />
    <path
       id="path25"
       d="m 150.37604,136.68571 -0.25447,-0.82484 c 0.14441,-1.4503 0.79183,-4.57228 0.9578,-5.37254 0.0766,-0.83398 0.004,-1.05299 -0.0681,-1.27202 0.0806,-0.47894 0.2514,-0.84528 0.44153,-1.25302 -0.17241,-1.06968 -0.63464,-2.35011 -1.20363,-3.92633 -0.10823,-0.9307 0.12988,-2.2 0.31038,-3.16216 -0.0519,-1.39519 -0.30153,-2.29155 -0.5419,-3.15465 -0.14756,-0.81748 -0.0875,-0.95351 0.17296,-1.54392 -1.68795,-4.21697 -3.12195,-6.55828 -4.88163,-9.43136 -2.12673,-2.48194 -4.51618,-4.45099 -7.46705,-6.882693 -7.62341,-4.202316 -9.93635,-4.672212 -13.95446,-5.488573 -2.62566,-0.224502 -5.35973,0.01451 -5.86804,0.05894 -0.78166,-0.131849 -1.22872,-0.337438 -1.84587,-0.621253 -0.45492,0.08791 -1.27255,0.648988 -1.86483,1.055424 -0.64255,0.258888 -0.8356,0.168867 -1.02865,0.07885 -0.8275,0.182901 -1.64585,0.496476 -2.7225,0.909031 -0.58022,0.0361 -1.02256,-0.281942 -1.44311,-0.584322 -0.57339,0.0021 -1.41704,0.309187 -2.0915,0.554676 -0.68526,0.138635 -0.84833,0.0626 -1.5476,-0.263482 0.40298,-0.638346 1.61609,-1.126202 2.33449,-1.415105 1.32904,-0.564174 2.235,-0.964804 3.14097,-1.36544 1.60319,-0.343893 2.65666,-0.363572 3.71015,-0.383257 1.17957,-0.212683 1.56779,-0.452946 1.95601,-0.693215 0.913,-0.142156 1.64068,-0.07563 2.36836,-0.0091 1.15762,-0.06747 1.84483,-0.216446 4.17778,-0.722191 7.72314,1.542831 11.36079,3.241325 16.43872,5.612301 4.30174,3.535489 7.97124,8.353799 11.33039,12.764629 1.15091,2.16631 2.72962,7.04986 4.17081,11.50801 0.37284,3.03958 -0.33512,4.55927 -0.49378,4.89984 -0.12421,1.28987 -0.11735,2.52579 -0.1019,5.3113 -0.50758,2.83895 -1.34037,4.62486 -2.41718,6.9341 -1.17848,0.41872 -1.71412,-1.31762 -1.71412,-1.31762"
       style="fill:#ac724f;fill-opacity:0.9;fill-rule:nonzero;stroke:none;stroke-width:0.352779" />
    <path
       id="path26"
       d="m 100.04896,99.411565 -0.0245,-0.207825 c 0.22822,-0.152657 0.53164,-0.131402 1.18912,-0.08535 0.20083,0.380757 -0.26949,0.689499 -0.69386,0.96806 -0.41283,-0.182772 -0.47079,-0.674881 -0.47079,-0.674881"
       style="fill:#ac724f;fill-opacity:0.9;fill-rule:nonzero;stroke:none;stroke-width:0.352779" />
    <path
       id="path27"
       d="m 102.15538,98.129632 -0.39435,-0.748029 c 0.11565,-0.31526 0.9536,-0.776401 1.547,-1.10296 0.0792,0.03342 0.7398,0.889573 1.55,1.939532 -0.0426,0.248743 -1.08786,0.571202 -1.99234,0.850222 -0.27454,-0.112179 -0.71031,-0.938765 -0.71031,-0.938765"
       style="fill:#ac724f;fill-opacity:0.9;fill-rule:nonzero;stroke:none;stroke-width:0.352779" />
    <path
       id="path28"
       d="m 156.64823,108.07632 -0.0243,-0.20637 c 0.1922,-0.07 0.45141,0.0509 0.71062,0.17179 0.07,0.1922 -0.10376,0.30623 -0.27747,0.42027 -0.1922,0.0699 -0.25339,0.0414 -0.31458,0.0129 -0.07,-0.1922 -0.0943,-0.39857 -0.0943,-0.39857"
       style="fill:#ac724f;fill-opacity:0.9;fill-rule:nonzero;stroke:none;stroke-width:0.352779" />
    <path
       id="path29"
       d="m 110.23987,156.64833 -0.0243,-0.20637 c 0.18857,-0.0717 0.44336,0.0472 0.69814,0.16597 0.37559,-0.0642 0.57985,-0.26152 0.80311,-0.47717 0.52059,0.0306 1.08193,0.29236 1.73804,0.59831 0.64564,-0.0134 1.51497,-0.35109 2.19548,-0.61541 1.26078,-0.15872 2.12122,-0.0884 2.98168,-0.0181 1.15198,-0.0168 1.69952,-0.10776 2.24707,-0.19868 1.30527,-0.007 2.35306,0.0751 3.40084,0.15732 1.1025,-0.0487 1.40221,-0.19044 1.70192,-0.33217 1.70739,-0.4649 3.49448,-0.89137 7.05715,-1.74158 2.4922,-1.18764 4.63871,-3.0581 5.40741,-3.72792 1.13554,-0.79052 1.75474,-1.0869 4.11629,-2.21721 1.03975,-0.95564 1.88862,-2.77605 2.59403,-4.28881 0.2551,-0.27936 1.21205,-0.58702 2.49361,-0.99907 0.76,0.25698 1.00317,1.18455 1.14974,1.74364 -0.3703,0.58051 -2.63099,3.33559 -6.87011,8.50178 -4.12998,2.84198 -11.33154,5.54853 -15.03799,6.94153 -3.03211,0.39258 -7.00172,-0.007 -10.60502,-0.36887 -5.94129,-2.01906 -6.04709,-2.91723 -6.04709,-2.91723"
       style="fill:#a3561c;fill-opacity:0.9;fill-rule:nonzero;stroke:none;stroke-width:0.352779" />
    <path
       id="path30"
       d="m 89.440266,113.19237 0.22323,-0.71403 c 0.388187,-0.73823 0.639424,-0.92648 0.89066,-1.11474 0.299945,-0.52767 0.415312,-0.98435 0.57125,-1.6016 0.280557,-0.25307 0.937417,-0.36899 1.062003,-2.83188 0.460922,-0.32875 1.803061,0.2971 1.211481,3.45651 -0.97314,1.31174 -1.583628,1.96596 -2.412211,2.85391 -0.236619,0.42454 -0.104792,0.78673 0.212008,1.65715 -0.459963,0.38765 -1.328815,-0.0175 -2.089766,-0.37234 -0.03831,-0.15054 0.331345,-1.33298 0.331345,-1.33298"
       style="fill:#a3561c;fill-opacity:0.9;fill-rule:nonzero;stroke:none;stroke-width:0.352779" />
    <path
       id="path31"
       d="m 150.48943,136.33849 -0.0677,-0.2848 c 0.0189,-0.59728 0.1098,-1.04249 0.56496,-3.27228 0.40637,-2.94984 0.3566,-3.66268 0.32585,-4.10303 0.0909,-0.60911 0.23267,-0.91323 0.37449,-1.21735 -0.195,-0.88054 -0.57515,-1.65263 -1.2324,-2.98754 -0.15118,-1.80925 0.24765,-3.56703 0.3477,-4.00797 -0.0682,-0.82968 -0.25166,-1.40281 -0.43509,-1.97593 -0.22114,-1.25267 -0.30799,-2.2106 -0.39484,-3.16852 -0.22787,-1.0637 -0.41953,-1.40586 -0.61118,-1.74801 -0.13701,-0.52633 -0.11281,-0.82746 -0.0886,-1.12859 -0.3642,-0.73639 -0.83351,-1.33529 -1.30283,-1.93419 -0.8942,-1.27801 -1.51778,-2.24113 -2.99299,-4.51959 -1.75464,-1.90153 -4.29617,-3.97609 -8.53873,-7.439119 -7.58265,-3.898192 -10.34539,-4.036531 -10.72656,-4.05562 -0.74722,-0.03918 -1.27931,-0.06798 -1.81141,-0.09678 -0.74913,-0.169882 -1.13263,-0.348715 -1.51614,-0.527547 -0.47023,-0.04363 -0.66144,0.0819 -0.85913,0.211662 -0.47794,-0.142556 -0.91027,-0.460241 -1.53888,-0.922181 -0.17731,0.0011 -0.39516,0.468257 -0.7364,1.200046 -1.17629,0.05415 -2.3028,-0.610092 -3.04158,-1.0457 -0.095,-0.212716 0.18299,-0.808877 0.45921,-1.401227 0.3474,-0.103362 1.69516,0.0058 2.595,0.07867 1.12487,-0.06644 1.59988,-0.220533 2.07488,-0.374628 0.79203,-0.08602 1.28506,-0.03707 1.77809,0.01188 0.93932,0.08848 1.59434,0.14768 7.52662,0.683836 7.77115,3.493844 12.24305,7.635335 14.31498,9.554178 4.05421,5.05427 5.68257,7.74848 7.48657,10.73328 2.41528,7.61605 2.43055,10.36792 2.43725,11.57404 -0.12899,1.27546 -0.29333,1.62821 -0.45766,1.98096 -0.15737,1.60214 -0.18538,3.20757 -0.23073,5.80746 -0.13001,0.59053 -1.144,2.80239 -2.19907,5.1039 -0.13083,0.16741 -0.7319,-0.0148 -1.08859,-0.12301 -0.34729,-0.32151 -0.41503,-0.60631 -0.41503,-0.60631"
       style="fill:#a3561c;fill-opacity:0.9;fill-rule:nonzero;stroke:none;stroke-width:0.352779" />
    <path
       id="path32"
       d="m 94.081057,106.3195 -0.547184,-0.45857 c 0.246786,-0.62049 1.061278,-0.83401 1.394578,-0.92139 0.387454,-0.31759 0.527712,-0.61837 0.897614,-1.41162 0.774731,0.50915 0.597417,1.42897 0.244738,3.25859 -0.845571,0.49187 -1.989746,-0.46701 -1.989746,-0.46701"
       style="fill:#a3561c;fill-opacity:0.9;fill-rule:nonzero;stroke:none;stroke-width:0.352779" />
    <path
       id="path33"
       d="m 102.5401,98.06504 -0.3998,-0.575633 c 0.18989,-0.743935 0.75356,-0.810323 1.13381,-0.855102 1.20109,1.27336 1.06132,1.573093 0.95286,1.805681 -0.94878,0.356017 -1.15951,0.243197 -1.24535,0.197238 -0.23731,-0.278163 -0.44152,-0.572184 -0.44152,-0.572184"
       style="fill:#a3561c;fill-opacity:0.9;fill-rule:nonzero;stroke:none;stroke-width:0.352779" />
    <path
       id="path34"
       d="m 109.52647,94.869901 -0.69829,-0.819311 c 0.24353,-0.361546 1.8506,-0.891355 3.75093,-1.517862 1.16098,-0.04493 0.8984,0.518184 0.78875,0.753327 0.13364,0.397833 0.40661,0.648929 1.11874,1.303963 -0.28706,0.308065 -1.36488,0.04551 -1.91697,-0.08897 -0.56696,0.113856 -0.84377,0.414808 -1.49254,1.120106 -0.92685,-0.01936 -1.55062,-0.75125 -1.55062,-0.75125"
       style="fill:#a3561c;fill-opacity:0.9;fill-rule:nonzero;stroke:none;stroke-width:0.352779" />
    <path
       id="path35"
       d="m 114.5793,92.826909 0.2495,0.01391 c 0.24639,0.127507 0.29805,0.269415 0.34971,0.411335 -0.20414,-0.01138 -0.50529,-0.167207 -0.83809,-0.339413 -0.0368,-0.101197 0.23888,-0.08583 0.23888,-0.08583"
       style="fill:#a3561c;fill-opacity:0.9;fill-rule:nonzero;stroke:none;stroke-width:0.352779" />
    <path
       id="path36"
       d="m 112.06488,157.08592 0.36094,-0.38121 c 0.95071,0.35089 0.85771,0.83099 0.82306,1.00986 -0.35829,0.0458 -0.76154,-0.0771 -1.26421,-0.23021 -0.13282,-0.17343 0.0802,-0.39844 0.0802,-0.39844"
       style="fill:#922904;fill-opacity:0.9;fill-rule:nonzero;stroke:none;stroke-width:0.352779" />
    <path
       id="path37"
       d="m 115.69251,158.45332 1.02429,-0.0935 c -0.0324,-0.48218 -1.08008,-0.73739 -1.81143,-0.91554 -0.17481,-0.15996 -0.0143,-0.50413 0.22695,-1.02154 2.24368,-0.34743 3.01652,0.013 3.30289,0.14649 0.83943,-0.0231 1.57902,-0.18478 2.31862,-0.34649 1.11218,-0.0469 1.73191,0.0575 2.35166,0.16198 1.61943,-0.18675 2.979,-0.51939 4.35802,-0.85681 1.39379,-0.12713 1.77338,0.0499 2.24581,0.27018 0.28629,-0.0708 0.46405,-0.45204 0.60486,-0.75402 0.52732,-0.30671 1.031,-0.37959 1.84192,-0.49694 0.12305,0.0539 0.26315,0.58849 0.39219,1.08071 -0.108,0.13919 -0.71408,0.26179 -1.53537,0.42792 0.0399,0.55115 0.92135,1.21748 1.36961,1.55632 -0.29782,0.19225 -2.50002,0.98556 -5.74616,2.15494 -3.67713,0.34782 -7.32924,-0.16904 -10.28758,-0.58772 -1.92619,-0.60995 -0.65628,-0.72593 -0.65628,-0.72593"
       style="fill:#922904;fill-opacity:0.9;fill-rule:nonzero;stroke:none;stroke-width:0.352779" />
    <path
       id="path38"
       d="m 133.16204,154.26 0.0656,-0.14057 c 0.31015,-0.18228 0.62366,-0.26447 1.25676,-0.43044 0.26614,0.64815 -0.28622,1.01073 -0.67541,1.26621 -0.81065,-0.34404 -0.6469,-0.6952 -0.6469,-0.6952"
       style="fill:#922904;fill-opacity:0.9;fill-rule:nonzero;stroke:none;stroke-width:0.352779" />
    <path
       id="path39"
       d="m 137.49174,154.42032 0.17102,-0.33353 c -0.0325,-0.53379 -0.24332,-0.85266 -0.55905,-1.33029 -0.19981,-0.0233 -0.81842,0.34557 -1.23142,0.59181 -0.47331,0.13833 -0.6388,0.0612 -0.80429,-0.016 0.17629,-0.19704 0.55725,-0.36071 0.9382,-0.52437 0.71573,-0.617 1.20953,-1.20742 1.70334,-1.79785 1.11535,-0.83629 1.98475,-1.26798 4.7847,-2.65828 1.46042,-1.30369 2.2482,-3.11607 3.02556,-4.90449 0.56719,-0.37913 2.03081,-0.0886 3.42546,0.18817 -0.30925,0.7769 -3.23429,4.34474 -5.77256,7.44083 -2.25783,2.08224 -4.56942,3.45884 -5.83351,4.21164 -0.27761,-0.0287 0.15255,-0.86763 0.15255,-0.86763"
       style="fill:#922904;fill-opacity:0.9;fill-rule:nonzero;stroke:none;stroke-width:0.352779" />
    <path
       id="path40"
       d="m 90.056246,112.50206 -0.06171,-0.52395 c 0.544704,-0.33188 1.066772,-0.0884 1.601581,0.16095 -0.187991,0.41417 -0.923495,0.60699 -1.313175,0.70915 -0.195017,-0.0772 -0.226694,-0.34615 -0.226694,-0.34615"
       style="fill:#922904;fill-opacity:0.9;fill-rule:nonzero;stroke:none;stroke-width:0.352779" />
    <path
       id="path41"
       d="m 91.630978,110.2429 0.204877,-0.43936 c 0.88901,-0.0592 1.040286,0.35638 1.245005,0.91882 -0.508191,0.45364 -1.056537,0.19794 -1.376938,0.0485 -0.177005,-0.30484 -0.07294,-0.528 -0.07294,-0.528"
       style="fill:#922904;fill-opacity:0.9;fill-rule:nonzero;stroke:none;stroke-width:0.352779" />
    <path
       id="path42"
       d="m 151.03286,136.26203 -0.20465,-0.28412 c -0.0576,-0.46794 0.0766,-0.75577 0.21079,-1.04359 0.0971,-0.71666 0.0816,-1.30475 0.0638,-1.97784 0.29036,-0.9387 0.80147,-1.86047 1.42074,-2.97725 0.0774,-0.3173 -0.293,-0.22018 -0.90586,-0.0595 -0.34178,-0.81661 0.0166,-1.58521 0.15695,-1.88615 -0.17202,-1.04563 -0.5226,-2.0227 -1.1607,-3.80107 -0.18631,-2.38771 0.23935,-3.33191 0.36396,-3.60833 -0.0752,-0.83291 -0.29161,-1.5745 -0.50807,-2.31608 -0.15243,-1.21232 -0.12226,-1.95244 0.0131,-5.27565 -0.81092,-2.35464 -2.33767,-3.07142 -2.57768,-3.18411 -0.0956,-0.31258 0.0275,-0.58196 0.35993,-1.30928 -0.25174,-0.39213 -0.93599,-0.21275 -1.43696,-0.0814 -0.18692,-0.19836 -0.58006,-1.27851 -0.85407,-2.03134 -0.41374,-0.56802 -0.70284,-0.58826 -0.97867,-0.60759 -0.64626,-0.57051 -1.16031,-1.24847 -2.27738,-2.72173 -3.75098,-2.90444 -6.54726,-4.461346 -8.21716,-5.391109 -0.32664,-0.298657 -0.23325,-0.810325 -0.0862,-1.616086 -0.71552,-0.73701 -1.28313,-0.364415 -1.67074,-0.109961 -1.66349,-0.526422 -3.76602,-1.568895 -4.08283,-1.725982 -0.96194,-0.444043 -1.82081,-0.829673 -2.93076,-1.328024 -0.3695,-0.290327 -0.16765,-0.505476 -0.0115,-0.671959 0.53134,-0.0014 1.02456,0.163394 1.51779,0.328176 1.14225,0.271339 2.04512,0.438195 4.32735,0.859966 5.92452,2.741049 8.50175,4.567565 12.18045,7.174699 2.78456,3.02181 2.77247,4.39369 2.76651,5.0716 0.13065,0.16191 0.66007,0.13274 1.38266,0.0929 0.0382,0.0419 2.21667,3.27014 3.79367,5.607 3.18381,9.26374 3.12266,11.3375 3.10127,12.06312 -0.18791,1.43484 -0.39619,2.4629 -0.60446,3.49096 -0.14626,1.60734 -0.11676,2.54377 -0.0481,4.7224 -0.68358,2.88746 -1.55632,4.10536 -2.35387,5.21832 -0.24579,0.0782 -0.74941,-0.62095 -0.74941,-0.62095"
       style="fill:#922904;fill-opacity:0.9;fill-rule:nonzero;stroke:none;stroke-width:0.352779" />
    <path
       id="path43"
       d="m 92.809816,108.0951 -0.06602,-0.56055 c 0.578752,-0.26418 1.218863,0.0343 1.590039,0.20739 0.100883,0.29064 -0.07746,0.6731 -0.36555,1.2909 -1.076047,-0.23799 -1.158472,-0.93774 -1.158472,-0.93774"
       style="fill:#922904;fill-opacity:0.9;fill-rule:nonzero;stroke:none;stroke-width:0.352779" />
    <path
       id="path44"
       d="m 94.954035,106.01586 0.249495,0.0139 c 0.246412,0.12747 0.298056,0.26941 0.349715,0.41134 -0.20414,-0.0114 -0.505289,-0.16721 -0.838096,-0.33942 -0.03683,-0.1012 0.238886,-0.0858 0.238886,-0.0858"
       style="fill:#922904;fill-opacity:0.9;fill-rule:nonzero;stroke:none;stroke-width:0.352779" />
    <path
       id="path45"
       d="m 109.8753,94.271074 -0.35493,-0.649657 c 0.0118,-0.02995 0.60754,0.0098 1.36969,0.06068 0.41654,0.885094 -0.21371,1.114495 -0.50057,1.218905 -0.26503,-0.17386 -0.51419,-0.629924 -0.51419,-0.629924"
       style="fill:#922904;fill-opacity:0.9;fill-rule:nonzero;stroke:none;stroke-width:0.352779" />
    <path
       id="path46"
       d="m 116.83894,93.035417 -0.0658,-0.558757 c 0.42077,-0.09089 0.87866,0.383181 1.08998,0.601936 0.0298,0.272952 -0.14517,0.387793 -0.55941,0.659709 -0.40538,-0.198761 -0.46476,-0.702888 -0.46476,-0.702888"
       style="fill:#922904;fill-opacity:0.9;fill-rule:nonzero;stroke:none;stroke-width:0.352779" />
    <path
       id="path47"
       d="m 120.8641,92.926518 -0.17886,-0.491425 c 0.28366,-0.287117 0.73851,-0.07502 0.97881,0.03704 0.10493,0.288288 -0.007,0.528585 -0.21922,0.98343 -0.40186,-0.0376 -0.58073,-0.529042 -0.58073,-0.529042"
       style="fill:#922904;fill-opacity:0.9;fill-rule:nonzero;stroke:none;stroke-width:0.352779" />
    <path
       id="path48"
       d="m 122.65463,92.862633 -0.21909,-0.692561 c 0.0451,-0.165922 0.46753,-0.220438 1.57108,-0.36287 0.45203,0.508438 0.0288,1.416092 -0.44342,2.428734 -0.51683,-0.134985 -0.90857,-1.373303 -0.90857,-1.373303"
       style="fill:#922904;fill-opacity:0.9;fill-rule:nonzero;stroke:none;stroke-width:0.352779" />
    <path
       id="path49"
       d="m 126.30281,157.37263 -0.88379,-1.27248 c 2.10041,-0.84996 3.46002,0.22996 5.02286,1.4713 -0.10681,1.06541 -1.77712,0.8963 -3.08155,0.76422 -0.57327,-0.26576 -1.05752,-0.96304 -1.05752,-0.96304"
       style="fill:#580e03;fill-opacity:0.9;fill-rule:nonzero;stroke:none;stroke-width:0.352779" />
    <path
       id="path50"
       d="m 137.95378,152.53927 -0.67992,-0.72653 c 0.14503,-0.27698 1.80636,-1.42422 3.14381,-2.34784 1.28981,-0.11319 1.79022,0.64912 2.16784,1.22437 -1.38531,1.90694 -2.50637,2.35506 -3.56854,2.77964 -0.24843,-0.059 -1.06319,-0.92964 -1.06319,-0.92964"
       style="fill:#580e03;fill-opacity:0.9;fill-rule:nonzero;stroke:none;stroke-width:0.352779" />
    <path
       id="path51"
       d="m 143.75432,147.48204 0.74462,-0.55796 c 0.89703,0.32848 0.42326,0.98562 0.23909,1.24105 -0.47461,0.11056 -0.87053,-0.01 -1.51194,-0.20465 -0.0123,-0.0734 0.52823,-0.47844 0.52823,-0.47844"
       style="fill:#580e03;fill-opacity:0.9;fill-rule:nonzero;stroke:none;stroke-width:0.352779" />
    <path
       id="path52"
       d="m 145.86271,145.27444 0.27864,-0.59755 c 0.65346,-0.41524 1.0351,-0.23728 1.47561,-0.0319 -0.0657,0.30763 -0.67583,0.89698 -1.0915,1.29847 -0.87366,-0.21676 -0.66275,-0.66905 -0.66275,-0.66905"
       style="fill:#580e03;fill-opacity:0.9;fill-rule:nonzero;stroke:none;stroke-width:0.352779" />
    <path
       id="path53"
       d="m 152.03696,134.10055 -0.39268,-0.97107 c 0.0314,-0.30342 0.61197,-1.15097 1.55687,-2.53028 0.2584,-0.25097 0.57951,-0.10123 0.90797,0.0519 -0.70931,3.24007 -1.24548,4.03572 -1.59746,4.55803 -0.037,-0.0263 -0.4747,-1.10861 -0.4747,-1.10861"
       style="fill:#580e03;fill-opacity:0.9;fill-rule:nonzero;stroke:none;stroke-width:0.352779" />
    <path
       id="path54"
       d="m 151.37785,126.00178 -0.68471,-1.87799 c -0.0851,-0.82057 0.17899,-2.99878 0.3536,-4.43915 0.008,-1.42394 -0.15728,-1.72392 -0.32237,-2.0239 0.0286,-0.3529 0.22855,-0.48428 0.8024,-0.86084 0.59861,0.44631 0.50346,1.17973 0.41626,1.85199 1.0083,0.7745 1.26211,0.23021 1.72711,-0.76698 0.99023,2.39443 1.07466,4.72018 1.12071,5.98898 -0.68154,3.71568 -1.1411,4.7012 -1.52403,5.52241 -1.10954,-1.25674 -1.88897,-3.39452 -1.88897,-3.39452"
       style="fill:#580e03;fill-opacity:0.9;fill-rule:nonzero;stroke:none;stroke-width:0.352779" />
    <path
       id="path55"
       d="m 150.75065,113.24583 -0.057,-0.15659 c 0.10546,-0.45428 0.29134,-0.85291 0.62071,-1.55925 0.0172,0.002 0.34531,0.7804 0.5305,1.21976 0.0693,0.53578 -0.0312,0.75125 -0.22108,1.15854 -0.69252,-0.16623 -0.87313,-0.66246 -0.87313,-0.66246"
       style="fill:#580e03;fill-opacity:0.9;fill-rule:nonzero;stroke:none;stroke-width:0.352779" />
    <path
       id="path56"
       d="m 149.42605,109.49579 -0.18949,-0.57595 c -0.0541,-0.42417 0.0692,-0.36665 0.44793,-0.19006 1.07806,1.70217 0.96491,1.94483 0.74351,2.41961 -0.67046,-0.64608 -1.00195,-1.6536 -1.00195,-1.6536"
       style="fill:#580e03;fill-opacity:0.9;fill-rule:nonzero;stroke:none;stroke-width:0.352779" />
    <path
       id="path57"
       d="m 147.63085,106.50146 0.11828,-0.25365 c 0.22823,-0.0831 0.3889,0.0691 0.84503,0.50093 -0.20281,0.66881 -0.71718,0.42896 -0.97084,0.31068 -0.11075,-0.30431 0.008,-0.55796 0.008,-0.55796"
       style="fill:#580e03;fill-opacity:0.9;fill-rule:nonzero;stroke:none;stroke-width:0.352779" />
    <path
       id="path58"
       d="m 144.20486,102.96493 -0.25475,-0.9142 c 0.33358,0.0366 0.85262,0.97973 1.04954,1.33755 -0.005,0.30396 -0.20834,0.3279 -0.40916,0.35155 -0.26391,-0.33806 -0.38563,-0.7749 -0.38563,-0.7749"
       style="fill:#580e03;fill-opacity:0.9;fill-rule:nonzero;stroke:none;stroke-width:0.352779" />
    <path
       id="path59"
       d="m 139.95255,99.393335 0.10971,-0.23527 c 0.28636,-0.10082 0.52667,0.01124 0.76697,0.12329 0.14202,0.208728 0.0753,0.351789 0.009,0.494851 -0.28636,0.100812 -0.56967,0.08097 -0.88343,0.059 -0.12336,-0.181299 -0.002,-0.44187 -0.002,-0.44187"
       style="fill:#580e03;fill-opacity:0.9;fill-rule:nonzero;stroke:none;stroke-width:0.352779" />
  </g>
</svg>
