<?xml version="1.0" encoding="UTF-8" standalone="no"?>
<!-- Created with Inkscape (http://www.inkscape.org/) -->

<svg
   width="86.141632mm"
   height="45.885971mm"
   viewBox="0 0 86.141632 45.885971"
   version="1.1"
   id="svg1"
   inkscape:version="1.3.2 (091e20ef0f, 2023-11-25, custom)"
   sodipodi:docname="stain_C.svg"
   xmlns:inkscape="http://www.inkscape.org/namespaces/inkscape"
   xmlns:sodipodi="http://sodipodi.sourceforge.net/DTD/sodipodi-0.dtd"
   xmlns="http://www.w3.org/2000/svg"
   xmlns:svg="http://www.w3.org/2000/svg">
  <sodipodi:namedview
     id="namedview1"
     pagecolor="#505050"
     bordercolor="#ffffff"
     borderopacity="1"
     inkscape:showpageshadow="0"
     inkscape:pageopacity="0"
     inkscape:pagecheckerboard="1"
     inkscape:deskcolor="#d1d1d1"
     inkscape:document-units="mm"
     inkscape:zoom="0.7349537"
     inkscape:cx="229.26614"
     inkscape:cy="109.53071"
     inkscape:window-width="1920"
     inkscape:window-height="1031"
     inkscape:window-x="1920"
     inkscape:window-y="49"
     inkscape:window-maximized="1"
     inkscape:current-layer="layer1" />
  <defs
     id="defs1" />
  <g
     inkscape:label="Layer 1"
     inkscape:groupmode="layer"
     id="layer1"
     transform="translate(-44.449986,-119.59162)">
    <path
       id="path216"
       d="m 109.68884,120.28392 0.68162,0.68163 c 2.79154,0.4192 2.79154,-0.16006 2.79154,-0.37298 0.23902,-0.1742 0.53116,-0.1742 0.8233,-0.1742 0.23901,0.15321 0.23901,0.34046 0.23901,0.95301 2.85732,0.56595 3.79437,0.139 5.01754,-0.41831 0.19043,0.0665 0.46121,1.14532 0.81294,2.54671 0.49418,0.45966 1.64914,0.45966 2.26662,0.45966 0.40148,0.18765 0.40148,0.47627 0.40148,1.09796 1.05024,0.91909 1.94758,1.08267 2.45042,1.17433 0.25672,0.39568 0.38243,1.27279 0.54982,2.44076 0.0966,0.077 1.60314,0.24444 1.00608,1.90709 -0.0234,0.90927 1.14835,1.83098 1.92984,2.44571 0.0909,0.27356 -0.11753,1.38436 -0.33504,2.54385 0.0923,0.22439 1.14927,1.10684 2.26561,2.03879 0.0349,0.10048 -0.39629,1.14145 -0.64552,1.74313 -0.41943,0.57499 -0.68283,0.67607 -1.45097,0.97083 -0.6171,2.50978 -0.14044,3.40044 0.19306,4.02358 -0.0515,0.18507 -0.6472,0.50386 -1.58857,1.00767 0.0163,1.52863 0.97397,2.548 1.94722,3.58398 -0.3693,0.51801 -2.08111,0.51801 -4.01031,0.51801 -0.58619,1.05665 0.51598,2.54741 -1.8446,3.12349 -0.0923,0.0349 -0.31573,0.92524 -0.47494,1.55955 0.10922,0.50771 0.49709,0.93629 1.10895,1.6124 0.15099,0.7867 -0.33111,0.7867 -0.49193,0.7867 -0.50581,-0.39837 -0.96323,-0.88527 -1.42065,-1.37217 -0.61661,-0.39836 -0.91283,-0.39836 -1.73618,-0.39836 -1.70158,1.8052 -1.70158,2.67869 -1.70158,3.56718 -0.85233,0.85368 -1.40091,0.51463 -1.6042,0.38899 -0.16633,-0.40905 -0.16633,-0.78337 -0.16633,-1.80567 -1.57518,-0.25466 -3.1358,0.51533 -3.8456,0.86554 -1.13845,0.33697 -1.82011,0.39862 -2.50177,0.46027 -0.86709,0.0935 -1.24521,0.14612 -1.64775,0.20214 -0.44033,-0.26051 -0.65979,-0.68453 -0.96874,-1.28146 -0.2727,-0.0847 -1.24294,0.11494 -2.10061,0.29142 -0.37146,-0.07 -0.5113,-0.43441 -0.63377,-0.75355 -0.50255,-0.15182 -1.26629,-0.10038 -1.92455,-0.0561 -0.73045,-0.1556 -0.96496,-0.39011 -1.19947,-0.62462 -0.54133,-0.19188 -0.96843,-0.19188 -1.39555,-0.19188 -0.44117,-0.23902 -0.553271,-0.53116 -0.665377,-0.82329 -0.272901,-0.23902 -0.494344,-0.23902 -0.7158,-0.23902 -0.654611,-0.39838 -1.233258,-0.88527 -1.811905,-1.37217 -0.69699,-0.39837 -0.970231,-0.39837 -1.243471,-0.39837 -0.542816,-0.62581 -0.933027,-1.39068 -1.323238,-2.15555 -0.630781,-0.72468 -1.011527,-0.84553 -1.427674,-0.97761 -0.320153,-0.46929 -0.386528,-1.04451 -0.454032,-1.6295 -0.352566,-0.50774 -0.839653,-0.72144 -1.27786,-0.91369 -0.358528,-0.4328 -0.358528,-0.76953 -0.358528,-1.59945 -1.131725,-2.39349 -1.693548,-2.75177 -2.169385,-3.05523 0.08527,-1.06788 0.840704,-4.2655 1.191242,-5.74925 -0.03214,-0.27242 -0.636514,-0.94025 -1.309356,-1.68373 7.06e-4,-0.016 0.733626,-0.60946 1.673221,-1.3703 0.614278,-1.13963 0.614278,-2.12198 0.614278,-2.58882 0.275823,-0.36993 0.708209,-0.483 1.097721,-0.58486 0.318703,-0.2918 0.318703,-0.54658 0.318703,-1.34889 2.918552,-2.4821 5.262125,-3.67289 6.500848,-4.30231 1.092643,-0.72122 1.189383,-0.97332 1.286123,-1.22542 0.30112,-0.20627 0.57243,-0.20627 0.84372,-0.20627 0.58032,-0.35833 1.01829,-0.79629 1.6829,-1.46091 0.4392,-0.11171 1.99119,-0.0109 3.73897,0.10267 0.11189,-0.0426 0.11448,-0.8222 0.11632,-1.37546 0.3183,-0.42359 0.95402,-0.71884 2.16225,-1.27995 0.0447,0.003 0.73391,0.69225 0.73391,0.69225"
       style="fill:#fbd9c5;fill-opacity:1;fill-rule:nonzero;stroke:none;stroke-width:0.352778" />
    <path
       id="path217"
       d="m 56.564148,147.32247 1.567843,0.47344 c 1.881995,1.72443 3.058936,3.76596 3.980208,5.364 0.191195,0.71032 0.191195,2.53496 0.191195,3.82174 -0.1914,1.14716 -0.460121,1.47094 -0.713186,1.77586 -0.103657,0.51892 0.02272,0.84824 0.332013,1.65427 -2.983262,3.02978 -4.945147,3.90208 -5.756621,4.26289 -1.855222,0.40684 -3.311242,0.54328 -6.082015,0.80292 -0.0084,-0.003 -1.847088,-1.84017 -2.071063,-2.06398 -0.541782,-0.52271 -0.979992,-0.93778 -1.418195,-1.35285 -0.358531,-0.687 -0.358531,-1.1116 -0.358531,-1.53619 -0.417587,-0.96275 -0.927968,-1.71484 -1.783468,-2.97549 -0.03725,-0.20416 0.378481,-1.35386 0.626508,-2.03977 0.177507,-1.23321 0.146442,-2.05459 0.102874,-3.20632 0.144166,-0.42576 0.67365,-0.70913 1.051267,-0.91122 0.410164,-0.48422 0.533858,-0.87394 0.657549,-1.26367 0.298232,-0.31886 0.539038,-0.31886 0.779851,-0.31886 0.710272,-0.52954 1.337578,-1.17676 2.228546,-2.096 0.470959,-0.22503 1.261213,-0.10904 1.817596,-0.0274 0.563174,-0.10785 0.69511,-0.32133 0.968636,-0.7639 2.469804,-0.025 3.878993,0.40052 3.878993,0.40052"
       style="fill:#fbd9c5;fill-opacity:1;fill-rule:nonzero;stroke:none;stroke-width:0.352778" />
    <path
       id="path218"
       d="m 48.162537,158.14201 0.787562,0.59569 c 0.472659,0.0714 0.472659,-0.40527 0.472659,-0.58649 -0.358539,-0.21732 -0.796745,-0.30172 -1.234955,-0.38612 -0.438199,-0.0857 -0.535584,-0.10602 -0.632961,-0.12635 0.229637,0.21733 0.607695,0.50327 0.607695,0.50327"
       style="fill:#fbd9c5;fill-opacity:1;fill-rule:nonzero;stroke:none;stroke-width:0.352778" />
    <path
       id="path219"
       d="m 113.88491,122.92458 0.22549,0.42134 c 0.38358,0.2317 0.67224,0.12093 0.94944,0.0146 0.2268,0.0673 0.2268,0.25596 0.2268,0.59778 -0.9822,0.16966 -2.27319,0.0508 -3.22588,-0.0369 -0.6629,-0.62891 -0.43331,-1.22722 -0.13872,-1.99491 1.51125,0.15425 1.96287,0.9981 1.96287,0.9981"
       style="fill:#f8ccaf;fill-opacity:1;fill-rule:nonzero;stroke:none;stroke-width:0.352778" />
    <path
       id="path220"
       d="m 118.29655,123.25122 -0.12037,0.19476 c -0.24843,0.15934 -0.43169,0.15934 -0.61495,0.15934 -0.14995,-0.15934 -0.14995,-0.3541 -0.14995,-0.54886 0.24843,-0.15935 0.55206,-0.15935 0.85569,-0.15935 0.14995,0.15935 0.0296,0.35411 0.0296,0.35411"
       style="fill:#f8ccaf;fill-opacity:1;fill-rule:nonzero;stroke:none;stroke-width:0.352778" />
    <path
       id="path221"
       d="m 106.07986,123.45686 v 0.42181 c -1.20581,0.76587 -1.88857,0.77772 -2.25457,0.78406 -0.21806,-0.18817 -0.13389,-0.43772 -0.0518,-0.68117 0.37181,-0.19918 0.74412,-0.19918 1.11644,-0.19918 0.50381,-0.12891 0.74726,-0.28648 0.99071,-0.44404 0.19918,-0.0176 0.19918,0.11852 0.19918,0.11852"
       style="fill:#f8ccaf;fill-opacity:1;fill-rule:nonzero;stroke:none;stroke-width:0.352778" />
    <path
       id="path222"
       d="m 116.97603,125.79636 -0.21887,0.65659 c -0.76231,0.10891 -0.76231,-0.51642 -0.76231,-0.82479 0.25231,-0.2523 0.56068,-0.2523 0.86904,-0.2523 0.18923,0.18923 0.11214,0.4205 0.11214,0.4205"
       style="fill:#f8ccaf;fill-opacity:1;fill-rule:nonzero;stroke:none;stroke-width:0.352778" />
    <path
       id="path223"
       d="m 120.00807,125.96604 0.62842,0.62841 c -0.43987,1.19392 -1.45467,1.61427 -2.57461,2.07816 -0.20554,0.394 0.45835,0.8043 0.67876,0.94052 0.32661,-0.14994 0.5054,-0.46943 0.95656,-1.27561 1.16083,0.0785 1.43221,0.93351 1.57381,1.37968 0.39417,0.26205 0.92368,0.26205 1.38596,0.26205 0.48247,0.16868 0.60989,0.37484 0.7373,0.581 0.52729,0.0827 1.04433,-0.0223 1.85358,-0.18675 0.26434,0.1852 1.09006,1.49517 1.61763,2.33214 0.53278,1.3172 0.65639,2.09016 0.82478,3.14321 0.31435,0.50041 1.08555,0.94301 2.26986,1.62272 0.14954,1.03435 -0.80179,1.96625 -1.66025,2.80716 -0.70501,1.82836 -0.56952,2.86232 -0.5095,3.3203 -0.20698,0.7403 -0.51996,1.18715 -0.95545,1.8089 -0.0622,0.4978 0.17045,1.49925 0.59301,3.31811 -0.005,0.0209 -0.90059,0.0209 -1.40504,0.0209 -0.98739,0.71785 -2.17441,1.94759 -4.17835,4.02363 -1.16597,0.37446 -2.33425,-0.68282 -2.89745,-1.1925 -0.15113,0.0571 -1.31195,1.2179 -2.79953,2.70548 -0.75293,0.10512 -1.21502,-1.11027 -1.60896,-2.14638 -0.23237,-0.0442 -1.31169,0.7118 -1.95467,1.16216 -0.37505,0.0349 -1.25919,-0.27331 -2.782,-0.80416 -1.07682,0.0508 -1.59743,0.67811 -1.83988,0.97024 -0.6494,0.23902 -1.20067,0.23902 -1.75194,0.23902 -0.85758,0.18524 -1.35446,0.41164 -2.42495,0.89938 -0.19092,-0.14151 -0.49977,-1.65167 -0.75706,-2.90962 -0.84341,-0.57736 -0.84341,0.50447 -0.84341,1.47191 -1.6255,0.82089 -2.413282,0.25129 -2.741425,0.014 -0.693918,-0.36231 -1.213891,-0.56787 -1.733864,-0.77342 -0.512882,-0.39607 -0.619764,-0.67459 -0.726641,-0.95313 -0.26252,-0.22788 -0.47649,-0.22788 -1.059519,-0.22788 -2.577507,-2.23479 -2.584848,-2.74667 -2.588351,-2.99141 -0.401246,-0.54662 -0.888147,-0.96997 -1.375047,-1.39333 -0.398364,-0.47777 -0.398364,-0.63835 -0.398364,-0.79895 -0.398374,-0.95717 -0.885271,-1.96647 -1.853561,-3.97363 -0.121461,-1.40253 0.469702,-3.75025 0.755075,-4.88355 -0.0052,-0.60137 -0.305223,-1.16196 -0.648141,-1.80271 0.07802,-0.28719 0.841506,-1.19454 1.339317,-1.78616 0.40731,-0.81209 0.40731,-1.21302 0.40731,-1.61395 0.375483,-0.67602 0.834404,-1.10134 1.29334,-1.52666 0.439734,-0.49632 0.518262,-0.67761 0.596787,-0.8589 0.557724,-0.59443 1.160865,-1.13966 2.146265,-2.03046 0.435896,-0.11919 3.312996,-0.28451 5.446519,-0.4071 1.14857,0.0686 1.30895,0.32805 1.62256,0.83548 2.14152,-0.39227 3.76177,-1.25394 5.5476,-2.20367 0.61378,0.11421 1.19459,1.50428 1.97477,3.3715 2.10474,0.83463 2.32836,-0.63454 2.45339,-1.45592 2.04787,-0.89029 3.8833,-0.92118 4.46758,-0.93101 0.87641,-0.23578 1.36331,-0.51411 2.38287,-1.09694 0.19052,-0.0366 0.51491,0.28774 0.51491,0.28774"
       style="fill:#f8ccaf;fill-opacity:1;fill-rule:nonzero;stroke:none;stroke-width:0.352778" />
    <path
       id="path224"
       d="m 112.07172,126.29063 -0.017,0.41253 c -0.0839,0.0839 -0.19694,-0.19858 -0.29924,-0.45421 0.0126,-0.30541 0.13026,-0.42308 0.24791,-0.54074 0.0837,0.20914 0.0683,0.58242 0.0683,0.58242"
       style="fill:#f8ccaf;fill-opacity:1;fill-rule:nonzero;stroke:none;stroke-width:0.352778" />
    <path
       id="path225"
       d="m 56.504895,147.57557 1.442621,0.51378 c 1.56869,1.37614 2.700186,3.12053 3.760269,4.75482 0.199517,0.62717 0.235405,2.43794 0.27348,4.35907 -0.132584,0.42453 -1.33217,2.2225 -2.067253,3.32426 -0.834792,1.09511 -1.120009,1.33181 -1.405226,1.56852 -0.233356,0.39898 -0.233356,0.64989 -0.233356,0.90081 -0.705464,0.5468 -1.567695,0.9642 -2.903534,1.61086 -0.340497,0.0444 -0.966424,-0.3465 -1.578793,-0.72893 -0.391266,0.0204 -1.739671,0.50533 -3.104607,0.99615 -0.282271,0.0134 -0.442923,-0.40528 -0.547631,-0.67815 -0.381712,-0.22325 -0.743539,-0.22325 -1.601593,-0.22325 -0.564063,-1.09755 -0.645012,-2.92465 -0.704208,-4.26076 0.08887,-0.16341 1.056531,-0.49765 3.057514,-1.18881 -0.131871,-0.78042 -2.387465,-1.59605 -3.624114,-2.04324 -0.116804,0.02 -0.688029,0.77732 -1.42114,1.74924 -1.289544,-0.23451 -0.812747,-1.25302 -0.653959,-1.59221 0.16152,-1.18802 0.20016,-2.30087 0.269748,-4.30539 0.02272,-0.0399 2.373129,-2.28856 4.500612,-4.32392 0.432961,-0.25697 2.065182,-0.45308 4.182607,-0.70749 1.60782,0.007 2.358563,0.27464 2.358563,0.27464"
       style="fill:#f8ccaf;fill-opacity:1;fill-rule:nonzero;stroke:none;stroke-width:0.352778" />
    <path
       id="path226"
       d="m 50.66213,160.78655 0.120368,0.19476 c 0.337502,0.15935 0.629641,0.15935 0.92178,0.15935 0.140543,-0.15935 0.02018,-0.35411 -0.100196,-0.54887 -0.337506,-0.15934 -0.629638,-0.15934 -0.921777,-0.15934 -0.140543,0.15934 -0.02018,0.3541 -0.02018,0.3541"
       style="fill:#f8ccaf;fill-opacity:1;fill-rule:nonzero;stroke:none;stroke-width:0.352778" />
    <path
       id="path227"
       d="m 54.911412,162.9112 -0.120368,0.19476 c 0.149941,0.15934 0.453574,0.15934 0.757206,0.15934 0.24843,-0.15934 0.24843,-0.3541 0.24843,-0.54887 -0.149945,-0.15934 -0.333213,-0.15934 -0.516471,-0.15934 -0.248429,0.15934 -0.368797,0.35411 -0.368797,0.35411"
       style="fill:#f8ccaf;fill-opacity:1;fill-rule:nonzero;stroke:none;stroke-width:0.352778" />
  </g>
</svg>
