<?xml version="1.0" encoding="UTF-8" standalone="no"?>
<!-- Created with Inkscape (http://www.inkscape.org/) -->

<svg
   width="98.049194mm"
   height="57.957619mm"
   viewBox="0 0 98.049194 57.957619"
   version="1.1"
   id="svg1"
   inkscape:version="1.3.2 (091e20ef0f, 2023-11-25, custom)"
   sodipodi:docname="stain_B.svg"
   xmlns:inkscape="http://www.inkscape.org/namespaces/inkscape"
   xmlns:sodipodi="http://sodipodi.sourceforge.net/DTD/sodipodi-0.dtd"
   xmlns="http://www.w3.org/2000/svg"
   xmlns:svg="http://www.w3.org/2000/svg">
  <sodipodi:namedview
     id="namedview1"
     pagecolor="#505050"
     bordercolor="#ffffff"
     borderopacity="1"
     inkscape:showpageshadow="0"
     inkscape:pageopacity="0"
     inkscape:pagecheckerboard="1"
     inkscape:deskcolor="#d1d1d1"
     inkscape:document-units="mm"
     inkscape:zoom="0.7349537"
     inkscape:cx="174.84094"
     inkscape:cy="128.57953"
     inkscape:window-width="1920"
     inkscape:window-height="1031"
     inkscape:window-x="1920"
     inkscape:window-y="49"
     inkscape:window-maximized="1"
     inkscape:current-layer="layer1" />
  <defs
     id="defs1" />
  <g
     inkscape:label="Layer 1"
     inkscape:groupmode="layer"
     id="layer1"
     transform="translate(-58.737485,-114.3)">
    <path
       id="path101"
       d="m 59.833741,170.83269 -1.087829,-1.9805 c -0.103383,-2.47755 0.770923,-5.6143 1.175557,-7.06601 0.393074,-1.20436 0.468861,-1.22467 0.810612,-1.31624 1.603972,6.62106 1.679434,8.43485 1.773744,10.70198 -0.119114,0.34449 -1.152705,0.79376 -1.824367,1.0857 -0.110188,-0.0822 -0.847717,-1.42493 -0.847717,-1.42493"
       style="fill:#dcc6b4;fill-opacity:0.7;fill-rule:nonzero;stroke:none;stroke-width:0.352779" />
    <path
       id="path102"
       d="m 62.527165,145.85369 -0.30039,-1.12105 c 2.484341,-5.15136 4.312262,-7.19771 5.09503,-8.07402 1.029415,-1.27353 1.504815,-1.95375 3.637224,-5.00488 3.285161,-4.07108 5.153581,-5.97791 8.962059,-9.86469 9.335873,-5.06557 14.832319,-6.22758 20.799272,-7.48905 10.62793,0.61457 9.69774,2.1673 9.33335,2.77557 -2.43735,1.63815 -3.6504,2.09007 -4.20272,2.29585 -1.28062,0.0817 -2.2935,-0.0242 -4.79102,-0.28539 -0.49616,0.12317 -3.07276,1.64391 -4.299294,2.36783 -2.347092,0.98826 -3.98923,1.47222 -5.631378,1.95618 -2.071741,0.86293 -2.961739,1.43367 -3.851728,2.0044 -1.919834,1.23494 -3.376297,2.17358 -4.832767,3.11222 -2.027797,1.22582 -3.049748,1.7854 -5.025644,2.86734 -1.417584,1.29766 -3.352581,3.79578 -4.00997,4.64446 -0.859416,0.81339 -1.252453,0.95886 -1.656632,1.10845 -0.303015,0.36164 -0.293381,0.68291 -0.265995,1.59624 -5.162033,8.32458 -5.86314,8.49773 -6.952374,8.76674 -1.776513,-0.79592 -2.007023,-1.6562 -2.007023,-1.6562"
       style="fill:#dcc6b4;fill-opacity:0.7;fill-rule:nonzero;stroke:none;stroke-width:0.352779" />
    <path
       id="path103"
       d="m 155.51857,169.56784 0.18609,-0.60858 c 0.20932,-0.90437 0.27907,-1.40111 0.45137,-2.62817 0.50143,0.37927 0.58155,1.79724 0.63065,2.66613 -0.18184,0.45017 -0.79532,0.97854 -1.26811,0.57062"
       style="fill:#dcc6b4;fill-opacity:0.7;fill-rule:nonzero;stroke:none;stroke-width:0.352779" />
    <path
       id="path104"
       d="m 59.445774,168.90688 -0.108526,-0.71523 c 0.111363,-2.51058 0.263292,-2.77373 0.320099,-2.87213 0.468476,0.16314 0.984245,0.46092 1.670044,0.85686 0.307633,0.57795 0.459126,1.75497 0.691165,3.55772 -0.202618,0.62993 -0.887344,0.2346 -1.141213,0.088 -0.462043,-0.16023 -0.772894,-0.20949 -1.083747,-0.25876 -0.296401,-0.31759 -0.347822,-0.65649 -0.347822,-0.65649"
       style="fill:#ceaf98;fill-opacity:0.7;fill-rule:nonzero;stroke:none;stroke-width:0.352779" />
    <path
       id="path105"
       d="m 63.163761,144.18037 0.537469,-2.0314 c 3.386431,-5.33551 4.369131,-5.69922 4.751134,-5.84059 0.412786,-0.48098 0.535308,-0.92745 0.657824,-1.37393 0.443947,-0.57465 0.86403,-0.83055 1.619625,-1.29081 0.428142,-0.55948 3.065079,-4.53245 5.602879,-8.35605 1.667005,-1.41755 8.086883,-5.21114 11.34035,-7.13367 3.104478,-1.32024 6.134795,-2.07004 8.777634,-2.72396 5.639744,-0.20805 7.204004,0.29068 7.829054,0.48996 1.0188,0.0909 1.63893,0.003 3.70618,-0.29139 0.63655,1.13094 -0.99053,2.207 -2.44223,3.16707 -1.02502,0.28083 -1.68557,-0.10053 -2.01939,-0.29326 -1.03492,-0.12758 -1.966,-0.0908 -3.31191,-0.0376 -0.735794,0.33961 -2.244192,1.60384 -4.035936,3.10556 -2.667731,1.18643 -5.155751,1.58807 -5.76618,1.68661 -1.39544,0.66137 -2.49056,1.37117 -7.776396,4.79719 -1.803146,1.13277 -3.217444,1.91592 -6.155373,3.54276 -1.852669,1.55938 -2.899729,3.28669 -3.33799,4.00968 -0.692037,0.71576 -1.099584,0.86758 -1.655192,1.07455 -0.259496,0.38336 -0.481543,1.32524 -0.845386,2.86861 -4.185258,6.93327 -4.862646,7.11478 -5.132585,7.18711 -0.796389,-0.15925 -1.499816,-0.42621 -2.759557,-0.90429 -0.01268,-0.032 0.415976,-1.65215 0.415976,-1.65215"
       style="fill:#ceaf98;fill-opacity:0.7;fill-rule:nonzero;stroke:none;stroke-width:0.352779" />
    <path
       id="path106"
       d="m 63.380269,144.93055 -0.343972,-1.28371 c 4.165253,-6.61114 5.61154,-7.07704 6.815171,-7.46477 0.4979,0.25564 0.733828,1.38247 0.878352,2.07272 -0.434063,0.9777 -2.304513,4.17508 -4.59682,8.09359 -0.06835,0.0798 -1.003369,-0.0714 -2.307943,-0.28227 -0.177017,-0.13626 -0.444788,-1.13556 -0.444788,-1.13556"
       style="fill:#c3946d;fill-opacity:0.7;fill-rule:nonzero;stroke:none;stroke-width:0.352779" />
    <path
       id="path107"
       d="m 71.046075,134.84108 0.687767,-0.18429 c 0.570854,0.0883 0.839977,0.42054 1.467781,1.19563 -1.313128,0.40323 -2.407493,-0.22859 -2.155548,-1.01134"
       style="fill:#c3946d;fill-opacity:0.7;fill-rule:nonzero;stroke:none;stroke-width:0.352779" />
    <path
       id="path108"
       d="m 71.807784,133.54838 -0.498805,-0.83784 c 0.54912,-0.89604 2.072364,-1.72981 3.203103,-2.34874 0.104736,-0.15551 0.157533,-1.29395 0.205066,-2.31882 0.241358,-0.46737 1.348057,-1.67756 2.892271,-3.36617 2.538654,-1.95294 4.305365,-2.81135 4.978804,-3.13857 1.641369,-0.97368 2.974039,-1.83654 4.550562,-2.85726 2.396222,-1.00023 5.282328,-1.84228 11.567246,-0.22424 -0.555915,0.49041 -0.713039,0.7577 -1.686448,2.41364 -1.6898,1.01086 -4.972406,1.90092 -6.897091,2.42278 -1.897696,0.76037 -2.29242,1.16785 -2.687143,1.57533 -0.920722,0.59624 -1.651316,0.9175 -2.381913,1.23877 -1.395701,0.8762 -2.370959,1.62584 -3.346224,2.37549 -1.135004,0.72704 -1.546973,0.86599 -1.958943,1.00495 -0.421365,0.2597 -0.524398,0.43816 -0.62743,0.61662 -0.64904,0.2786 -1.339289,0.44064 -2.045891,0.60653 -0.760485,0.49471 -1.033769,0.96624 -1.300731,1.42686 -0.975976,0.75351 -1.901868,1.21385 -3.273018,1.89556 -0.382987,0.0365 -0.693415,-0.48489 -0.693415,-0.48489"
       style="fill:#c3946d;fill-opacity:0.7;fill-rule:nonzero;stroke:none;stroke-width:0.352779" />
    <path
       id="path109"
       d="m 101.14136,117.27498 -0.10585,-0.39504 c 1.10661,-0.47746 1.54347,-0.22524 1.7078,-0.13036 0.75436,0.007 1.51202,-0.0788 2.5331,-0.19467 0.39656,0.1091 0.51136,0.53754 0.72422,1.33195 -0.9071,0.65356 -1.63737,0.23195 -1.96679,0.0418 -0.67797,-0.10472 -1.17718,-0.0425 -2.16704,0.0808 -0.58443,-0.20822 -0.72544,-0.73447 -0.72544,-0.73447"
       style="fill:#c3946d;fill-opacity:0.7;fill-rule:nonzero;stroke:none;stroke-width:0.352779" />
    <path
       id="path110"
       d="m 63.875839,144.96234 -0.483083,-1.09399 c 3.765121,-6.55365 5.129151,-6.99305 6.305357,-7.37195 0.465056,0.28182 0.735217,1.53719 0.926798,2.42744 -0.146782,0.32663 -1.453586,1.9181 -2.433237,3.11114 -0.664024,1.14342 -0.987577,2.19448 -1.708133,4.53512 -1.729574,0.38085 -2.607702,-1.60776 -2.607702,-1.60776"
       style="fill:#b78d68;fill-opacity:0.7;fill-rule:nonzero;stroke:none;stroke-width:0.352779" />
    <path
       id="path111"
       d="m 72.281505,132.17922 0.198079,-0.34309 c 0.713412,-0.33934 1.387277,-0.41102 2.649699,-3.75904 0.146592,-0.34503 1.448555,-1.92677 2.244187,-2.89336 1.499786,-1.30974 2.537235,-1.94392 3.574688,-2.57812 2.290909,-1.41126 4.053451,-2.50194 7.41743,-4.58362 6.011735,-2.19584 8.083812,-2.09973 9.034167,-2.05565 0.376334,0.189 0.857913,0.86402 1.404261,1.62984 -0.03548,0.21107 -0.895423,1.31118 -2.673081,3.58527 -0.899323,0.55201 -4.549556,1.60955 -6.922798,2.29712 -1.41818,0.62992 -1.702812,1.12292 -1.942891,1.53875 -0.623629,0.43216 -1.14577,0.54453 -1.66791,0.65689 -1.235491,0.73272 -2.223404,1.51592 -3.21131,2.29912 -1.176649,0.77121 -1.626865,0.9306 -2.077078,1.09 -0.720887,0.36491 -1.151762,0.65152 -1.608411,0.95528 -0.711766,0.0511 -1.249872,-0.1812 -2.121251,-0.55741 -0.09125,0.0637 -0.756246,1.51325 -1.259917,2.6111 -0.358404,0.41278 -0.753596,0.35014 -1.057618,0.30195 -0.485966,0.20067 -0.775894,0.49411 -1.462447,1.18898 -0.98985,-0.56639 -0.517799,-1.38401 -0.517799,-1.38401"
       style="fill:#b78d68;fill-opacity:0.7;fill-rule:nonzero;stroke:none;stroke-width:0.352779" />
    <path
       id="path112"
       d="m 101.82466,117.08711 0.10335,-0.179 c 0.23967,-0.0569 0.42924,0.0525 0.61881,0.16198 -0.02,0.18375 -0.23395,0.29888 -0.44793,0.41402 -0.23967,0.0569 -0.31861,0.0113 -0.39754,-0.0343 0.02,-0.18374 0.12331,-0.36275 0.12331,-0.36275"
       style="fill:#b78d68;fill-opacity:0.7;fill-rule:nonzero;stroke:none;stroke-width:0.352779" />
    <path
       id="path113"
       d="m 103.66574,117.30392 -0.0145,-0.48395 c 1.57476,-0.0444 1.70357,0.43629 1.80154,0.80193 -1.10636,0.48718 -1.50804,0.25527 -1.65456,0.17067 -0.12555,-0.25795 -0.13247,-0.48865 -0.13247,-0.48865"
       style="fill:#b78d68;fill-opacity:0.7;fill-rule:nonzero;stroke:none;stroke-width:0.352779" />
    <path
       id="path114"
       d="m 64.029287,145.1572 -0.508449,-0.64839 c 0.07277,-0.28817 1.267491,-2.3575 1.994263,-3.61631 0.72655,-0.95378 0.88778,-0.86069 1.049013,-0.7676 0.44173,-0.59858 0.820404,-1.42325 1.592518,-3.10484 0.975815,-0.43677 1.841612,0.51168 2.578828,1.31928 -0.202111,0.65085 -1.799437,2.61296 -2.701991,3.72163 -0.617236,1.08207 -0.82693,1.92329 -1.248225,3.61339 -0.01783,0.0252 -0.968991,0.28009 -1.87856,0.52381 -0.09399,-0.0419 -0.877397,-1.04097 -0.877397,-1.04097"
       style="fill:#ab724f;fill-opacity:0.7;fill-rule:nonzero;stroke:none;stroke-width:0.352779" />
    <path
       id="path115"
       d="m 75.228966,128.22935 -0.03457,-1.15286 c 4.34052,-3.93047 6.511279,-4.71198 6.91149,-4.85607 1.478985,-0.89605 2.886407,-1.84713 5.649327,-3.7142 3.989,-1.62606 7.161663,-2.17852 9.350404,-2.55966 0.424459,0.12038 0.930203,1.26569 1.204445,1.88674 -0.07777,0.24341 -0.667522,0.60971 -1.071848,0.86085 -0.547264,0.77583 -0.811829,1.47294 -1.266864,2.67194 -0.238771,0.12771 -3.964923,1.1651 -6.177141,1.78099 -1.888837,0.76151 -2.096514,1.12122 -2.299896,1.47349 -0.803475,0.55427 -1.582112,0.87944 -2.36075,1.20461 -1.396785,0.87187 -2.325331,1.61233 -3.253873,2.35278 -1.216214,0.74542 -1.774147,0.91602 -2.332085,1.08664 -0.556741,0.31322 -0.679264,0.52544 -0.801789,0.73766 -0.214342,0.11757 -0.353798,0.0491 -0.493252,-0.0194 -0.766425,-0.36103 -1.563718,-0.73376 -2.36101,-1.10649 -0.656949,-0.45887 -0.662586,-0.64698 -0.662586,-0.64698"
       style="fill:#ab724f;fill-opacity:0.7;fill-rule:nonzero;stroke:none;stroke-width:0.352779" />
    <path
       id="path116"
       d="m 64.184061,144.50985 -0.21612,-1.00427 c 0.360259,-0.27449 1.872997,-0.25809 3.108287,-0.2447 0.198852,0.72968 -0.69607,1.96526 -1.387854,2.92036 -1.231038,-0.40151 -1.504313,-1.67139 -1.504313,-1.67139"
       style="fill:#9f5a22;fill-opacity:0.7;fill-rule:nonzero;stroke:none;stroke-width:0.352779" />
    <path
       id="path117"
       d="m 65.887291,141.30763 0.04762,-0.30047 c 0.770102,-0.47765 1.663721,-0.761 1.781297,1.33433 -2.070876,0.4927 -1.828906,-1.03388 -1.828906,-1.03388"
       style="fill:#9f5a22;fill-opacity:0.7;fill-rule:nonzero;stroke:none;stroke-width:0.352779" />
    <path
       id="path118"
       d="m 75.742559,128.09927 -0.01884,-0.62823 c 2.596255,-2.86922 3.983118,-3.75286 4.728536,-4.2278 1.275282,-0.66646 2.088537,-1.00609 2.901796,-1.34571 0.758958,-0.43994 0.873318,-0.63802 1.259345,-1.30665 2.781939,-1.62166 5.234175,-2.60755 8.715239,-4.00705 3.219222,-0.50014 3.905703,0.25188 4.291784,0.67482 4.78e-4,0.29527 -0.384443,0.58154 -1.022401,1.056 -0.308805,0.55609 -0.713367,1.95901 -0.975081,2.86656 -0.47339,0.23844 -3.982093,1.22996 -6.361769,1.90244 -1.72649,0.71538 -1.964432,1.12751 -2.181617,1.50368 -0.75901,0.52417 -1.469502,0.78864 -2.179996,1.05311 -1.263525,0.79889 -2.097357,1.51086 -4.221371,3.32445 -1.976862,0.62484 -3.60151,-0.004 -4.329507,-0.28562 -0.600351,-0.38778 -0.606117,-0.58 -0.606117,-0.58"
       style="fill:#9f5a22;fill-opacity:0.7;fill-rule:nonzero;stroke:none;stroke-width:0.352779" />
    <path
       id="path119"
       d="m 64.747336,144.55341 -0.08948,-0.52401 c 0.151455,-0.0912 0.810606,0.0896 1.810009,0.3639 0.112008,0.25169 -0.532911,0.77406 -1.130748,1.25829 -0.441199,-0.22809 -0.589781,-1.09818 -0.589781,-1.09818"
       style="fill:#8a2e09;fill-opacity:0.7;fill-rule:nonzero;stroke:none;stroke-width:0.352779" />
    <path
       id="path120"
       d="m 76.931019,127.88415 0.103351,-0.17901 c 0.231019,-0.0619 0.410024,0.0414 0.589032,0.1448 0.0619,0.23101 -0.04145,0.41002 -0.1448,0.58903 -0.231015,0.0619 -0.410023,-0.0415 -0.589028,-0.14479 -0.0619,-0.23103 0.04145,-0.41003 0.04145,-0.41003"
       style="fill:#8a2e09;fill-opacity:0.7;fill-rule:nonzero;stroke:none;stroke-width:0.352779" />
    <path
       id="path121"
       d="m 78.284554,127.41883 -1.096999,-0.98696 c 0.528207,-1.56209 2.055294,-1.84708 2.60693,-1.95003 0.595645,-0.33417 0.772014,-0.63965 1.206062,-1.39145 3.278591,-0.94476 4.002704,-0.5267 4.560155,-0.20485 0.01543,-0.0265 -0.185356,-0.9595 -0.382731,-1.87665 0.06399,-0.11612 1.304419,-1.092 2.028511,-1.66165 1.629795,-0.83652 2.897688,-1.28929 6.602166,-2.61215 1.892301,0.51285 1.915561,2.84601 1.926835,3.97701 -0.07407,0.12022 -1.136475,0.69518 -1.761968,1.03369 -1.861881,0.53612 -3.512004,0.85285 -5.76664,1.28562 -0.868253,0.35556 -1.239155,0.99799 -1.51061,1.46816 -0.782764,0.55988 -1.468021,0.774 -2.153274,0.98812 -1.159528,0.77288 -1.891471,1.50341 -3.270781,2.88004 -1.145703,0.5307 -1.769494,0.0819 -1.968238,-0.061 -0.548172,-0.46388 -1.019418,-0.88785 -1.019418,-0.88785"
       style="fill:#8a2e09;fill-opacity:0.7;fill-rule:nonzero;stroke:none;stroke-width:0.352779" />
    <path
       id="path122"
       d="m 78.833008,127.04092 -0.506604,-0.68918 c -0.12314,-0.50933 0.161154,-0.73961 0.845129,-1.2936 1.676998,0.18969 2.319708,0.89377 2.779682,1.39765 -0.02347,0.32846 -0.574502,1.09942 -1.381994,2.22918 -0.619826,-0.12531 -1.736213,-1.64405 -1.736213,-1.64405"
       style="fill:#660f02;fill-opacity:0.7;fill-rule:nonzero;stroke:none;stroke-width:0.352779" />
    <path
       id="path123"
       d="m 82.56528,123.72205 -0.01978,-0.65944 c 0.645057,-0.0804 2.032296,0.40857 2.913182,0.71906 0.223805,0.21893 0.02044,0.57118 -0.488383,1.45248 -2.375096,-0.51418 -2.405019,-1.5121 -2.405019,-1.5121"
       style="fill:#660f02;fill-opacity:0.7;fill-rule:nonzero;stroke:none;stroke-width:0.352779" />
    <path
       id="path124"
       d="m 87.72535,120.65014 -0.81647,-1.04119 c 0.400098,-0.36163 3.197944,-1.11132 4.910439,-1.57019 0.920758,-0.0498 1.204901,0.30096 1.433233,0.58288 0.509026,0.17563 0.902824,0.10839 1.471048,0.0114 0.200305,0.11646 0.402044,0.6618 0.809074,1.76156 -0.787175,0.87432 -2.595139,1.33055 -5.422573,2.04405 -1.17181,-0.24169 -2.384751,-1.78847 -2.384751,-1.78847"
       style="fill:#660f02;fill-opacity:0.7;fill-rule:nonzero;stroke:none;stroke-width:0.352779" />
  </g>
</svg>
